<?xml version="1.0" encoding="UTF-8" standalone="no"?>
<svg
   xmlns:dc="http://purl.org/dc/elements/1.1/"
   xmlns:cc="http://creativecommons.org/ns#"
   xmlns:rdf="http://www.w3.org/1999/02/22-rdf-syntax-ns#"
   xmlns:svg="http://www.w3.org/2000/svg"
   xmlns="http://www.w3.org/2000/svg"
   viewBox="0 0 666.66669 666.66669"
   height="666.66669"
   width="666.66669"
   xml:space="preserve"
   id="svg2"
   version="1.1"><metadata
     id="metadata8"><rdf:RDF><cc:Work
         rdf:about=""><dc:format>image/svg+xml</dc:format><dc:type
           rdf:resource="http://purl.org/dc/dcmitype/StillImage" /></cc:Work></rdf:RDF></metadata><defs
     id="defs6" /><g
     transform="matrix(1.3333333,0,0,-1.3333333,0,666.66667)"
     id="g10"><g
       transform="scale(0.1)"
       id="g12"><path
         id="path14"
         style="fill:#ffffff;fill-opacity:1;fill-rule:nonzero;stroke:none"
         d="M 5000,0 H 0 V 5000 H 5000 V 0" /><path
         id="path16"
         style="fill:#6ecebe;fill-opacity:1;fill-rule:nonzero;stroke:none"
         d="M 556.52,2222.39 C 492.047,1578.01 873.512,1066.98 2200.78,1128.31 3528.05,1189.65 4115.94,2178.01 4369.97,3123.48 4624,4068.95 4107.94,4607.8 3530.73,4392.26 2953.54,4176.71 3230.99,3688.48 2120.22,3343.93 1009.46,2999.38 622.855,2885.38 556.52,2222.39" /><path
         id="path18"
         style="fill:none;stroke:#13283d;stroke-width:10;stroke-linecap:round;stroke-linejoin:round;stroke-miterlimit:10;stroke-dasharray:none;stroke-opacity:1"
         d="M 622.461,2401.58 C 516.57,1862.65 832.086,1147.36 1950.39,1103.86 c 1118.3,-43.51 2386.35,1495.82 2513.37,2288.61 127.01,792.79 -472.4,1014.99 -808.29,943.77 -335.9,-71.22 -478.31,-434.6 -760.69,-583.39 C 2612.39,3604.06 776.422,3185.19 622.461,2401.58 Z" /><path
         id="path20"
         style="fill:none;stroke:#13283d;stroke-width:10;stroke-linecap:round;stroke-linejoin:round;stroke-miterlimit:10;stroke-dasharray:none;stroke-opacity:1"
         d="m 3043.34,4469.14 56.76,102.64" /><path
         id="path22"
         style="fill:none;stroke:#13283d;stroke-width:10;stroke-linecap:round;stroke-linejoin:round;stroke-miterlimit:10;stroke-dasharray:none;stroke-opacity:1"
         d="m 3121.6,4419.1 114.19,119.32" /><path
         id="path24"
         style="fill:none;stroke:#13283d;stroke-width:10;stroke-linecap:round;stroke-linejoin:round;stroke-miterlimit:10;stroke-dasharray:none;stroke-opacity:1"
         d="m 3165.22,4345.97 105.21,19.24" /><path
         id="path26"
         style="fill:none;stroke:#13283d;stroke-width:10;stroke-linecap:round;stroke-linejoin:round;stroke-miterlimit:10;stroke-dasharray:none;stroke-opacity:1"
         d="M 1837.64,900.352 1769.6,804.809" /><path
         id="path28"
         style="fill:none;stroke:#13283d;stroke-width:10;stroke-linecap:round;stroke-linejoin:round;stroke-miterlimit:10;stroke-dasharray:none;stroke-opacity:1"
         d="M 1765.56,958.949 1638.57,853.352" /><path
         id="path30"
         style="fill:none;stroke:#13283d;stroke-width:10;stroke-linecap:round;stroke-linejoin:round;stroke-miterlimit:10;stroke-dasharray:none;stroke-opacity:1"
         d="m 1730.52,1036.55 -106.71,-7.18" /><path
         id="path32"
         style="fill:#b8def5;fill-opacity:1;fill-rule:nonzero;stroke:none"
         d="M 177.691,2332.15 H 2900.55 c 92.87,0 168.16,75.29 168.16,168.16 v 1687.23 c 0,92.87 -75.29,168.16 -168.16,168.16 H 890.266 c -85.36,0 -157.18,-63.95 -167.043,-148.73 l -176.602,-1517.82 -368.93,-357" /><path
         id="path34"
         style="fill:none;stroke:#13283d;stroke-width:10;stroke-linecap:round;stroke-linejoin:round;stroke-miterlimit:10;stroke-dasharray:none;stroke-opacity:1"
         d="M 177.691,2332.15 H 2900.55 c 92.87,0 168.16,75.29 168.16,168.16 v 1687.23 c 0,92.87 -75.29,168.16 -168.16,168.16 H 890.266 c -85.36,0 -157.18,-63.95 -167.043,-148.73 L 546.621,2689.15 Z" /><path
         id="path36"
         style="fill:#13283d;fill-opacity:1;fill-rule:nonzero;stroke:none"
         d="m 879.828,2655.08 c -269.035,19.03 -459.265,241.87 -358.715,502.75 100.547,260.89 293.496,260.89 385.891,508.19 92.394,247.29 188.416,500.93 480.096,502.74 291.69,1.81 173.93,-373.21 115.95,-422.12 -57.97,-48.92 -193.85,-222.85 -193.85,-222.85 L 1166.08,2951.3 879.828,2655.08" /><path
         id="path38"
         style="fill:#f5b084;fill-opacity:1;fill-rule:nonzero;stroke:none"
         d="m 1789.52,3608.36 -32.43,47.94 c 0,0 -46.91,8.97 -64.71,44.82 -17.8,35.84 10.4,88.34 30.33,79.6 19.94,-8.73 11.48,-39.33 11.48,-39.33 l 91.66,70.78 c 0,0 31.01,-41.43 26.13,-90.7 l 30.63,-35.98 -93.09,-77.13" /><path
         id="path40"
         style="fill:#5959b1;fill-opacity:1;fill-rule:nonzero;stroke:none"
         d="m 1866.49,3866.49 -6.49,-123.5 c -0.48,-9.09 -8.24,-16.07 -17.32,-15.59 l -249.76,13.14 c -9.09,0.48 -16.06,8.23 -15.59,17.32 l 6.5,123.5 c 0.48,9.08 8.24,16.06 17.32,15.58 l 249.75,-13.14 c 9.09,-0.47 16.07,-8.23 15.59,-17.31" /><path
         id="path42"
         style="fill:#13283d;fill-opacity:1;fill-rule:nonzero;stroke:none"
         d="m 1599.45,3883.51 -6.8,-129.42 219.69,-11.57 6.81,129.42 -219.7,11.57" /><path
         id="path44"
         style="fill:#13283d;fill-opacity:1;fill-rule:nonzero;stroke:none"
         d="m 1836.28,3816.05 c -5.39,0.28 -9.99,-3.86 -10.27,-9.25 -0.29,-5.39 3.85,-9.99 9.24,-10.27 5.39,-0.28 9.99,3.86 10.28,9.24 0.28,5.4 -3.86,10 -9.25,10.28" /><path
         id="path46"
         style="fill:none;stroke:#13283d;stroke-width:10;stroke-linecap:round;stroke-linejoin:round;stroke-miterlimit:10;stroke-dasharray:none;stroke-opacity:1"
         d="m 1866.49,3866.49 -6.49,-123.5 c -0.48,-9.09 -8.24,-16.07 -17.32,-15.59 l -249.76,13.14 c -9.09,0.48 -16.06,8.23 -15.59,17.32 l 6.5,123.5 c 0.48,9.08 8.24,16.06 17.32,15.58 l 249.75,-13.14 c 9.09,-0.47 16.07,-8.23 15.59,-17.31 z" /><path
         id="path48"
         style="fill:#f5b084;fill-opacity:1;fill-rule:nonzero;stroke:none"
         d="m 1757.09,3656.3 c 0,0 -46.91,8.97 -64.71,44.82 -17.8,35.84 10.4,88.34 30.33,79.6 19.94,-8.73 11.48,-39.33 11.48,-39.33" /><path
         id="path50"
         style="fill:none;stroke:#13283d;stroke-width:10;stroke-linecap:round;stroke-linejoin:round;stroke-miterlimit:10;stroke-dasharray:none;stroke-opacity:1"
         d="m 1757.09,3656.3 c 0,0 -46.91,8.97 -64.71,44.82 -17.8,35.84 10.4,88.34 30.33,79.6 19.94,-8.73 11.48,-39.33 11.48,-39.33" /><path
         id="path52"
         style="fill:none;stroke:#13283d;stroke-width:10;stroke-linecap:round;stroke-linejoin:round;stroke-miterlimit:10;stroke-dasharray:none;stroke-opacity:1"
         d="m 1734.19,3741.39 c -2.11,-14.54 -3.47,-16.83 -3.47,-16.83 0,0 21.07,11.24 52.65,-2.65" /><path
         id="path54"
         style="fill:#f5b084;fill-opacity:1;fill-rule:nonzero;stroke:none"
         d="m 1332.31,2035.08 42.35,-27.26 c 0,0 19.73,18.34 76.53,6.03 56.8,-12.33 66.8,-4.05 74.63,-24.3 7.83,-20.25 -24.88,-31.17 -47.07,-34.26 -22.2,-3.08 -25.36,-24.07 -13.3,-34.64 12.05,-10.55 86.69,-59.52 112.84,-67.2 26.14,-7.69 28.49,-38.37 5.31,-41.19 0,0 20.67,-8.38 16.57,-24.88 -4.11,-16.5 -26.13,-17.3 -38.4,-13.24 0,0 9.69,-9.1 2.65,-20.6 -7.03,-11.5 -36.46,-13.11 -87.33,10.15 -50.86,23.25 -76.23,43.65 -76.23,43.65 0,0 32.72,-38.4 44.82,-54.49 12.09,-16.07 2.97,-37.62 -20.98,-19.07 -23.94,18.54 -109.57,116.11 -133.62,160.94 l -28.59,17.06 69.82,123.3" /><path
         id="path56"
         style="fill:none;stroke:#13283d;stroke-width:10;stroke-linecap:round;stroke-linejoin:round;stroke-miterlimit:10;stroke-dasharray:none;stroke-opacity:1"
         d="m 1583.6,1812.26 c -36.66,9.59 -79.83,24.26 -134.73,59.6" /><path
         id="path58"
         style="fill:none;stroke:#13283d;stroke-width:10;stroke-linecap:round;stroke-linejoin:round;stroke-miterlimit:10;stroke-dasharray:none;stroke-opacity:1"
         d="m 1561.77,1774.14 c -45.88,11.58 -93.3,36.69 -131.54,60.46" /><path
         id="path60"
         style="fill:none;stroke:#13283d;stroke-width:10;stroke-linecap:round;stroke-linejoin:round;stroke-miterlimit:10;stroke-dasharray:none;stroke-opacity:1"
         d="m 1374.66,2007.82 c 0,0 19.73,18.34 76.53,6.03 56.8,-12.33 66.8,-4.05 74.63,-24.3 7.83,-20.25 -24.88,-31.17 -47.07,-34.26 -22.2,-3.08 -25.36,-24.07 -13.3,-34.64 12.05,-10.55 86.69,-59.52 112.84,-67.2 26.14,-7.69 28.49,-38.37 5.31,-41.19 0,0 20.67,-8.38 16.57,-24.88 -4.11,-16.5 -26.13,-17.3 -38.4,-13.24 0,0 9.69,-9.1 2.65,-20.6 -7.03,-11.5 -36.46,-13.11 -87.33,10.15 -50.86,23.25 -76.23,43.65 -76.23,43.65" /><path
         id="path62"
         style="fill:#f36150;fill-opacity:1;fill-rule:nonzero;stroke:none"
         d="m 1358.12,3500.7 c -298.94,0 -548.948,-217.41 -635.909,-576.12 -86.961,-358.72 -40.766,-589.72 95.113,-769.07 135.879,-179.36 431.716,-267.47 431.716,-267.47 l 83.27,147.04 -300.3,297.07 h 709.28 c 0,0 24.46,407.63 0,633.19 0,0 502.75,-252.73 641.35,-100.55 138.59,152.18 -500.03,820.7 -500.03,820.7 l -95.12,-78.81 225.56,-456.55 c 0,0 -282.63,350.57 -654.93,350.57" /><path
         id="path64"
         style="fill:#f2554a;fill-opacity:1;fill-rule:nonzero;stroke:none"
         d="m 2382.64,2864.79 c 3.63,3.99 6.61,8.41 9.2,13.09 -44.7,-2.85 -164.21,-6 -291.62,28.44 -161.37,43.63 -372.24,180.4 -372.24,180.4 8.22,-27.34 12.53,-94.86 13.96,-121.7 19.04,-9.49 504.82,-249.42 640.7,-100.23" /><path
         id="path66"
         style="fill:none;stroke:#13283d;stroke-width:10;stroke-linecap:round;stroke-linejoin:round;stroke-miterlimit:10;stroke-dasharray:none;stroke-opacity:1"
         d="m 1915.24,2890.54 c 159.07,-59.75 382.14,-119.37 467.4,-25.75 138.59,152.18 -500.03,820.7 -500.03,820.7 l -95.12,-78.81 225.56,-456.55 c 0,0 -236.53,293.39 -561.87,343.37" /><path
         id="path68"
         style="fill:none;stroke:#13283d;stroke-width:10;stroke-linecap:round;stroke-linejoin:round;stroke-miterlimit:10;stroke-dasharray:none;stroke-opacity:1"
         d="m 1714.12,3150.13 c 0,0 18.49,-54.32 27.17,-184.79" /><path
         id="path70"
         style="fill:#f2554a;fill-opacity:1;fill-rule:nonzero;stroke:none"
         d="m 1262.49,1911.78 c 0,0 -226.16,149.05 -366.002,272.21 -139.758,123.1 -194.945,467.86 -192.218,658.52 -61.122,-312.51 -12.157,-521.72 113.054,-687 135.879,-179.36 431.716,-267.47 431.716,-267.47 l 13.45,23.74" /><path
         id="path72"
         style="fill:#f2554a;fill-opacity:1;fill-rule:nonzero;stroke:none"
         d="m 1008.14,3042.28 c 0,0 74.38,-406.09 105.18,-710.13 h -81.31 l -23.87,710.13" /><path
         id="path74"
         style="fill:none;stroke:#13283d;stroke-width:10;stroke-linecap:round;stroke-linejoin:round;stroke-miterlimit:10;stroke-dasharray:none;stroke-opacity:1"
         d="m 1006.65,3086.72 25.36,-754.57" /><path
         id="path76"
         style="fill:none;stroke:#13283d;stroke-width:10;stroke-linecap:round;stroke-linejoin:round;stroke-miterlimit:10;stroke-dasharray:none;stroke-opacity:1"
         d="m 983.422,2010.33 c 129.838,-81.85 265.618,-122.29 265.618,-122.29 l 83.27,147.04 -300.3,297.07 h 709.28 c 0,0 24.46,407.63 0,633.19" /><path
         id="path78"
         style="fill:none;stroke:#13283d;stroke-width:10;stroke-linecap:round;stroke-linejoin:round;stroke-miterlimit:10;stroke-dasharray:none;stroke-opacity:1"
         d="m 722.211,2924.58 c -86.961,-358.72 -40.766,-589.72 95.113,-769.07 43.824,-57.85 104.285,-106.2 166.098,-145.18" /><path
         id="path80"
         style="fill:#f5b084;fill-opacity:1;fill-rule:nonzero;stroke:none"
         d="m 1232.38,3487.4 -5.05,224.13 c 0,0 -117.73,32.15 -59.14,102.02 37.74,45.01 49.97,-11.66 79.41,-10.75 36.77,1.13 -5.64,127.62 98.29,147.2 93.75,17.66 123.65,30.35 158.98,79.26 0,0 56.25,-114.14 52.66,-230.09 -3.62,-117.22 -92.07,-191.58 -173.59,-201.09 l -1.33,-97.91 c 0,0 -44.59,-95.61 -150.23,-12.77" /><path
         id="path82"
         style="fill:#d7956f;fill-opacity:1;fill-rule:nonzero;stroke:none"
         d="m 1514.23,4008.09 c -8.08,20.8 -9.36,21.17 -9.36,21.17 -35.33,-48.91 -65.23,-61.6 -158.98,-79.26 -23.74,-4.47 -39.78,-14.56 -50.94,-27.41 28.52,11.71 68.41,20.03 112.33,22.32 55.33,2.89 84.62,36.88 106.95,63.18" /><path
         id="path84"
         style="fill:#d7956f;fill-opacity:1;fill-rule:nonzero;stroke:none"
         d="m 1330.94,3598.08 52.59,-30.37 0.41,30.37 c 0,0 -2.27,-3.27 -53,0" /><path
         id="path86"
         style="fill:none;stroke:#13283d;stroke-width:10;stroke-linecap:round;stroke-linejoin:round;stroke-miterlimit:10;stroke-dasharray:none;stroke-opacity:1"
         d="m 1504.87,4029.26 c 0,0 56.25,-114.14 52.66,-230.09 -3.62,-117.22 -92.07,-191.58 -173.59,-201.09 0,0 -30.35,-4.54 -53,0" /><path
         id="path88"
         style="fill:none;stroke:#13283d;stroke-width:10;stroke-linecap:round;stroke-linejoin:round;stroke-miterlimit:10;stroke-dasharray:none;stroke-opacity:1"
         d="m 1313.76,3837.22 c 0,-9.49 7.69,-17.18 17.18,-17.18 9.49,0 17.18,7.69 17.18,17.18" /><path
         id="path90"
         style="fill:none;stroke:#13283d;stroke-width:10;stroke-linecap:round;stroke-linejoin:round;stroke-miterlimit:10;stroke-dasharray:none;stroke-opacity:1"
         d="m 1480.4,3858.56 c 0,-9.49 7.69,-17.18 17.17,-17.18 9.49,0 17.18,7.69 17.18,17.18" /><path
         id="path92"
         style="fill:none;stroke:#13283d;stroke-width:10;stroke-linecap:round;stroke-linejoin:round;stroke-miterlimit:10;stroke-dasharray:none;stroke-opacity:1"
         d="m 1416.09,3845.37 c 0,0 40.77,-13.58 17.22,-43.48" /><path
         id="path94"
         style="fill:#13283d;fill-opacity:1;fill-rule:nonzero;stroke:none"
         d="m 1325.35,3707.75 c 6.54,32.71 38.45,16.65 58.43,20.18 23.67,4.18 43.85,22.97 61.95,4.18 18.1,-18.79 -10.44,-62.64 -63.34,-62.64 -52.89,0 -61.22,17.4 -57.04,38.28" /><path
         id="path96"
         style="fill:none;stroke:#13283d;stroke-width:10;stroke-linecap:round;stroke-linejoin:round;stroke-miterlimit:10;stroke-dasharray:none;stroke-opacity:1"
         d="m 1180.25,3755.59 c -8.58,22.15 -12.62,51.46 27.44,49.33" /><path
         id="path98"
         style="fill:none;stroke:#13283d;stroke-width:10;stroke-linecap:round;stroke-linejoin:round;stroke-miterlimit:10;stroke-dasharray:none;stroke-opacity:1"
         d="m 1200.21,3772.31 -22.79,21.06" /><g
         transform="scale(10)"
         id="g100"><text
           id="text104"
           style="font-variant:normal;font-weight:bold;font-size:16.88279915px;font-family:Quicksand;-inkscape-font-specification:Quicksand-Bold;writing-mode:lr-tb;fill:#13283d;fill-opacity:1;fill-rule:nonzero;stroke:none"
           transform="matrix(1,0,0,-1,225.054,394.135)"><tspan
             id="tspan102"
             y="0"
             x="0 11.969905 16.713972">Hi,</tspan></text>
</g><path
         id="path106"
         style="fill:none;stroke:#13283d;stroke-width:10;stroke-linecap:round;stroke-linejoin:round;stroke-miterlimit:10;stroke-dasharray:none;stroke-opacity:1"
         d="m 2274.56,3833.31 h 647.85" /><path
         id="path108"
         style="fill:none;stroke:#13283d;stroke-width:10;stroke-linecap:round;stroke-linejoin:round;stroke-miterlimit:10;stroke-dasharray:none;stroke-opacity:1"
         d="m 2274.56,3735.73 h 647.85" /><path
         id="path110"
         style="fill:none;stroke:#13283d;stroke-width:10;stroke-linecap:round;stroke-linejoin:round;stroke-miterlimit:10;stroke-dasharray:none;stroke-opacity:1"
         d="m 2274.56,3638.14 h 378.3" /><path
         id="path112"
         style="fill:#b8def5;fill-opacity:1;fill-rule:nonzero;stroke:none"
         d="M 4752.75,972.91 H 2029.9 c -92.87,0 -168.17,75.29 -168.17,168.17 V 2828.3 c 0,92.88 75.3,168.16 168.17,168.16 h 2010.29 c 85.35,0 157.16,-63.94 167.03,-148.73 l 176.6,-1517.81 368.93,-357.01" /><path
         id="path114"
         style="fill:none;stroke:#13283d;stroke-width:10;stroke-linecap:round;stroke-linejoin:round;stroke-miterlimit:10;stroke-dasharray:none;stroke-opacity:1"
         d="M 4752.75,972.91 H 2029.9 c -92.87,0 -168.17,75.29 -168.17,168.17 V 2828.3 c 0,92.88 75.3,168.16 168.17,168.16 h 2010.29 c 85.35,0 157.16,-63.94 167.03,-148.73 l 176.6,-1517.81 z" /><path
         id="path116"
         style="fill:#f5b084;fill-opacity:1;fill-rule:nonzero;stroke:none"
         d="m 2429.36,1005.03 -0.23,-0.59 0.01,4.41 c 0,0 -21.98,-14.62 -104.72,-2.51 -82.75,12.12 -140.23,7.08 -140.86,-14.961 -0.63,-22.039 47.87,-31.539 47.87,-31.539 0,0 -94.15,-33.629 -122.48,-49.219 -28.33,-15.582 -3.72,-46.473 16.63,-39.211 0,0 -37.1,-16.371 -27.16,-38.269 9.94,-21.903 42.81,-6.082 42.81,-6.082 0,0 -28.69,-13.95 -18.66,-34.77 12.9,-26.769 119.67,21.481 119.67,21.481 0,0 -19.04,-20.258 -31.1,-38.508 -12.05,-18.25 9.12,-36.992 24.43,-23.332 15.31,13.679 39.63,43.82 62.27,43.179 22.65,-0.64 101.64,28.993 131.11,80.211 l 37.41,11.09 -37,118.62" /><path
         id="path118"
         style="fill:none;stroke:#13283d;stroke-width:10;stroke-linecap:round;stroke-linejoin:round;stroke-miterlimit:10;stroke-dasharray:none;stroke-opacity:1"
         d="m 2231.43,959.84 c 23.78,-6.09 33.44,-6.238 33.44,-6.238 0,0 6.6,-43.602 55.34,-57.012" /><path
         id="path120"
         style="fill:none;stroke:#13283d;stroke-width:10;stroke-linecap:round;stroke-linejoin:round;stroke-miterlimit:10;stroke-dasharray:none;stroke-opacity:1"
         d="m 2125.58,871.41 c 0,0 59.93,27.801 111.3,39.262" /><path
         id="path122"
         style="fill:none;stroke:#13283d;stroke-width:10;stroke-linecap:round;stroke-linejoin:round;stroke-miterlimit:10;stroke-dasharray:none;stroke-opacity:1"
         d="m 2141.23,827.059 c 0,0 71.85,30.863 109.33,40.089" /><path
         id="path124"
         style="fill:none;stroke:#13283d;stroke-width:10;stroke-linecap:round;stroke-linejoin:round;stroke-miterlimit:10;stroke-dasharray:none;stroke-opacity:1"
         d="m 2242.23,813.77 c 0,0 12.56,6.679 25.09,11.25" /><path
         id="path126"
         style="fill:none;stroke:#13283d;stroke-width:10;stroke-linecap:round;stroke-linejoin:round;stroke-miterlimit:10;stroke-dasharray:none;stroke-opacity:1"
         d="m 2234.32,920.68 c 0,0 3.75,-13.7 5.83,-18.891" /><path
         id="path128"
         style="fill:none;stroke:#13283d;stroke-width:10;stroke-linecap:round;stroke-linejoin:round;stroke-miterlimit:10;stroke-dasharray:none;stroke-opacity:1"
         d="m 2249.38,875.031 c 0,0 0.68,-7.371 3.07,-14.66" /><path
         id="path130"
         style="fill:none;stroke:#13283d;stroke-width:10;stroke-linecap:round;stroke-linejoin:round;stroke-miterlimit:10;stroke-dasharray:none;stroke-opacity:1"
         d="m 2264.56,831.559 c 0,0 3.18,-9.11 5.09,-12.918" /><path
         id="path132"
         style="fill:none;stroke:#13283d;stroke-width:10;stroke-linecap:round;stroke-linejoin:round;stroke-miterlimit:10;stroke-dasharray:none;stroke-opacity:1"
         d="m 2406.55,847.602 c -36.04,-34.012 -90.52,-53 -108.71,-52.493 -22.64,0.641 -46.96,-29.5 -62.27,-43.179 -15.31,-13.66 -36.48,5.082 -24.42,23.332 12.05,18.25 31.08,38.508 31.08,38.508 0,0 -106.76,-48.25 -119.66,-21.481 -10.03,20.82 18.66,34.77 18.66,34.77 0,0 -32.87,-15.821 -42.81,6.082 -9.94,21.898 27.16,38.269 27.16,38.269 -20.35,-7.262 -44.96,23.629 -16.63,39.211 28.32,15.59 122.48,49.219 122.48,49.219 0,0 -48.5,9.5 -47.87,31.539 0.63,22.041 58.11,27.081 140.86,14.961" /><path
         id="path134"
         style="fill:#4697d0;fill-opacity:1;fill-rule:nonzero;stroke:none"
         d="M 3172.41,1163.9 V 972.91 h 900.84 c 9.45,242.1 20.94,556.84 20.94,654.36 0,244.93 -46.06,468.99 -536.19,470 -345.82,0.7 -456.75,-145.64 -542.8,-380.64 -86.06,-234.99 -105.92,-456.75 -105.92,-456.75 l -479.92,-254.85 44.12,-141.428 c 0,0 536.74,95.089 698.93,300.298" /><path
         id="path136"
         style="fill:#3780ae;fill-opacity:1;fill-rule:nonzero;stroke:none"
         d="m 4084.41,1271.73 -532.4,50.09 -368.85,113.54 -4.42,-103.21 c 0,0 252.31,-372.31 895.21,-341.451 4.8,123.881 6.52,160.991 10.46,281.031" /><path
         id="path138"
         style="fill:#3780ae;fill-opacity:1;fill-rule:nonzero;stroke:none"
         d="m 3172.41,1163.9 c 6.34,169.79 13.45,366.67 16.97,464.91 -0.04,0.07 -0.16,0.26 -0.16,0.26 0,0 -52.62,-390.64 -130.8,-457.36 -92.79,-79.19 -304.94,-214.62 -397.88,-264.851 171.07,46.411 412.19,130.921 511.87,257.041" /><path
         id="path140"
         style="fill:none;stroke:#13283d;stroke-width:10;stroke-linecap:round;stroke-linejoin:round;stroke-miterlimit:10;stroke-dasharray:none;stroke-opacity:1"
         d="m 3172.4,1163.9 c 0,0 14.9,426.96 21.52,584.18" /><path
         id="path142"
         style="fill:none;stroke:#13283d;stroke-width:10;stroke-linecap:round;stroke-linejoin:round;stroke-miterlimit:10;stroke-dasharray:none;stroke-opacity:1"
         d="m 3401.99,2085.34 c -226.54,-39.29 -315.26,-173.36 -386.79,-368.71 -86.06,-234.99 -105.92,-456.75 -105.92,-456.75 l -479.92,-254.85 44.12,-141.428 c 0,0 536.74,95.089 698.93,300.298 V 972.91 h 900.84 c 9.45,242.1 20.94,556.84 20.94,654.36 0,194.6 -29.08,376.02 -286.84,442.88" /><path
         id="path144"
         style="fill:#ffffff;fill-opacity:1;fill-rule:nonzero;stroke:none"
         d="m 3728.82,2085.69 c -49.95,7.38 -106.47,11.44 -170.82,11.58 -38.29,0.07 -73.56,-1.75 -106.38,-5.2 16.96,-33.8 57.98,-91.44 141.95,-94.93 67.6,-2.81 110.64,45.88 135.25,88.55" /><path
         id="path146"
         style="fill:#3780ae;fill-opacity:1;fill-rule:nonzero;stroke:none"
         d="m 3913.9,1682.38 c 0,-10.26 -10.06,-413.16 -10.06,-413.16 l -106.5,21.81 116.56,391.35" /><path
         id="path148"
         style="fill:#5959b1;fill-opacity:1;fill-rule:nonzero;stroke:none"
         d="m 3037.29,1349.49 -336.69,56.98 c -24.61,4.16 -41.18,27.49 -37.02,52.09 l 85.62,505.84 c 4.16,24.6 27.48,41.18 52.09,37.02 l 336.7,-57 c 24.61,-4.16 41.18,-27.48 37.01,-52.09 l -85.62,-505.83 c -4.16,-24.61 -27.48,-41.18 -52.09,-37.01" /><path
         id="path150"
         style="fill:#ffffff;fill-opacity:1;fill-rule:nonzero;stroke:none"
         d="m 2970.78,1666.74 c 4.82,28.44 -14.33,55.39 -42.77,60.2 -28.44,4.82 -55.39,-14.33 -60.21,-42.77 -4.81,-28.44 14.34,-55.4 42.78,-60.21 28.43,-4.81 55.39,14.34 60.2,42.78" /><path
         id="path152"
         style="fill:none;stroke:#13283d;stroke-width:10;stroke-linecap:round;stroke-linejoin:round;stroke-miterlimit:10;stroke-dasharray:none;stroke-opacity:1"
         d="m 2970.78,1666.74 c 4.82,28.44 -14.33,55.39 -42.77,60.2 -28.44,4.82 -55.39,-14.33 -60.21,-42.77 -4.81,-28.44 14.34,-55.4 42.78,-60.21 28.43,-4.81 55.39,14.34 60.2,42.78 z" /><path
         id="path154"
         style="fill:none;stroke:#13283d;stroke-width:10;stroke-linecap:round;stroke-linejoin:round;stroke-miterlimit:10;stroke-dasharray:none;stroke-opacity:1"
         d="m 3165.42,1835.72 -76.04,-449.22 c -4.16,-24.61 -27.48,-41.18 -52.09,-37.01 l -336.69,56.98 c -24.61,4.16 -41.18,27.49 -37.02,52.09 l 85.62,505.84 c 4.16,24.6 27.48,41.18 52.09,37.02 l 336.7,-57 c 24.61,-4.16 41.18,-27.48 37.01,-52.09 l -2.6,-15.32" /><path
         id="path156"
         style="fill:#f5b084;fill-opacity:1;fill-rule:nonzero;stroke:none"
         d="m 3204.84,1397.94 c 0,0 -14.21,19.38 -70.27,29.68 -56.05,10.3 -80.82,9.97 -96.62,6.85 -15.8,-3.1 -38.08,22.28 -7.65,34.2 22.1,8.65 64.61,2.8 64.61,2.8 0,0 -51.89,15.38 -96.66,48.53 -44.76,33.16 -25.37,57.54 -12.99,57.52 0,0 -25.31,23.67 -14.69,42.52 10.61,18.85 32.07,9.03 32.07,9.03 0,0 -16.61,23.86 -2.32,40.03 14.29,16.16 89.89,-25.1 131.08,-40.31 l 7.86,46.56 c 0,0 32.14,4.48 80.47,-46.62 48.34,-51.1 29.27,-67.46 60.24,-104.06 l -75.13,-126.73" /><path
         id="path158"
         style="fill:none;stroke:#13283d;stroke-width:10;stroke-linecap:round;stroke-linejoin:round;stroke-miterlimit:10;stroke-dasharray:none;stroke-opacity:1"
         d="m 3002.64,1629.07 c 19.36,-19.78 111.57,-58.06 111.57,-58.06" /><path
         id="path160"
         style="fill:none;stroke:#13283d;stroke-width:10;stroke-linecap:round;stroke-linejoin:round;stroke-miterlimit:10;stroke-dasharray:none;stroke-opacity:1"
         d="m 2985.26,1577.52 c 21.38,-17.65 93.04,-52.87 114.11,-60.15" /><path
         id="path162"
         style="fill:none;stroke:#13283d;stroke-width:10;stroke-linecap:round;stroke-linejoin:round;stroke-miterlimit:10;stroke-dasharray:none;stroke-opacity:1"
         d="m 3181.29,1413.78 c -10.7,4.89 -25.8,10 -46.72,13.84 -56.05,10.3 -80.82,9.97 -96.62,6.85 -15.8,-3.1 -38.08,22.28 -7.65,34.2 22.1,8.65 64.61,2.8 64.61,2.8 0,0 -51.89,15.38 -96.66,48.53 -44.76,33.16 -25.37,57.54 -12.99,57.52 0,0 -25.31,23.67 -14.69,42.52 10.61,18.85 32.07,9.03 32.07,9.03 0,0 -16.61,23.86 -2.32,40.03 14.29,16.16 89.89,-25.1 131.08,-40.31 l 7.86,46.56 c 0,0 32.14,4.48 80.47,-46.62 8.01,-8.48 14.18,-15.99 19.02,-22.8" /><path
         id="path164"
         style="fill:#4697d0;fill-opacity:1;fill-rule:nonzero;stroke:none"
         d="m 3921.32,2025.84 c 265.54,-123.86 288.71,-517.72 268.85,-729.55 -4.66,-49.68 -14.38,-95 -26.53,-135.25 -36.91,-122.33 -170.78,-186.431 -289.12,-138.24 -191.96,78.2 -490.66,212.77 -678.4,360.42 l 83.85,141.45 625.56,-223.42 15.79,724.59" /><path
         id="path166"
         style="fill:none;stroke:#13283d;stroke-width:10;stroke-linecap:round;stroke-linejoin:round;stroke-miterlimit:10;stroke-dasharray:none;stroke-opacity:1"
         d="m 3921.32,2025.84 c 265.54,-123.86 288.71,-517.72 268.85,-729.55 -4.66,-49.68 -14.38,-95 -26.53,-135.25 -36.91,-122.33 -170.78,-186.431 -289.12,-138.24 -191.96,78.2 -490.66,212.77 -678.4,360.42 l 83.85,141.45 625.56,-223.42 8.45,388.05" /><path
         id="path168"
         style="fill:#13283d;fill-opacity:1;fill-rule:nonzero;stroke:none"
         d="m 3309.59,2546.05 c -44.92,48.92 -74.71,217.72 106.5,263.65 181.21,45.92 286.71,-94.33 286.71,-94.33 0,0 84.4,-6.21 120.39,-140.26 20.72,-77.11 -17.37,-275.12 -135.28,-378.97 -117.91,-103.84 -146.46,-41.78 -152.67,-33.09 -6.21,8.68 -225.65,383 -225.65,383" /><path
         id="path170"
         style="fill:#f5b084;fill-opacity:1;fill-rule:nonzero;stroke:none"
         d="m 3502.93,2096.04 v 96.79 c 0,0 -180.06,10.19 -196.47,198.59 -9.63,110.46 17.79,212.24 17.79,212.24 0,0 109.88,-41.79 210.51,-26.37 38.15,5.84 73.51,-21.18 76.78,-59.64 2.77,-32.44 9.52,-62.47 24.86,-66.03 34.75,-8.07 38.47,71.36 96.19,42.2 57.71,-29.17 -3.72,-124.33 -65.78,-121.02 0,0 -7.1,-83.39 21.1,-176.66 l -6.69,-104.56 c 0,0 -98.48,-95.23 -178.29,4.46" /><path
         id="path172"
         style="fill:#d7956f;fill-opacity:1;fill-rule:nonzero;stroke:none"
         d="m 3602.22,2546.12 c -13.53,22.25 -39.73,35.41 -67.46,31.17 -100.63,-15.42 -210.51,26.37 -210.51,26.37 0,0 -1.16,-4.31 -2.9,-12.01 0.01,0 51.97,-55.73 127.66,-43.09 68.73,11.47 109.94,20.87 153.21,-2.44" /><path
         id="path174"
         style="fill:#d7956f;fill-opacity:1;fill-rule:nonzero;stroke:none"
         d="m 3486.21,2195.01 c 10.39,-1.82 16.72,-2.18 16.72,-2.18 v -33.03 c 16.26,3.48 40.07,11.37 62.93,29.31 0,0 -55.93,2.17 -79.65,5.9 v 0" /><path
         id="path176"
         style="fill:none;stroke:#13283d;stroke-width:10;stroke-linecap:round;stroke-linejoin:round;stroke-miterlimit:10;stroke-dasharray:none;stroke-opacity:1"
         d="m 3324.25,2603.66 c 0,0 -27.42,-101.78 -17.79,-212.24 16.41,-188.4 196.47,-198.59 196.47,-198.59 0,0 35.2,-2.9 62.93,-3.72" /><path
         id="path178"
         style="fill:none;stroke:#13283d;stroke-width:10;stroke-linecap:round;stroke-linejoin:round;stroke-miterlimit:10;stroke-dasharray:none;stroke-opacity:1"
         d="m 3384.65,2468.47 c -5.95,7.97 -15.36,13.2 -26.07,13.2 -10.7,0 -20.11,-5.23 -26.06,-13.2" /><path
         id="path180"
         style="fill:none;stroke:#13283d;stroke-width:10;stroke-linecap:round;stroke-linejoin:round;stroke-miterlimit:10;stroke-dasharray:none;stroke-opacity:1"
         d="m 3552.01,2468.47 c -5.95,7.97 -15.36,13.2 -26.06,13.2 -10.71,0 -20.12,-5.23 -26.07,-13.2" /><path
         id="path182"
         style="fill:none;stroke:#13283d;stroke-width:10;stroke-linecap:round;stroke-linejoin:round;stroke-miterlimit:10;stroke-dasharray:none;stroke-opacity:1"
         d="m 3441.53,2464.64 c 0,0 -23.58,-17.53 0,-43.59" /><path
         id="path184"
         style="fill:#13283d;fill-opacity:1;fill-rule:nonzero;stroke:none"
         d="m 3542.28,2335.16 c 0,11.87 -14.08,21.51 -31.45,21.51 -17.36,0 -31.44,-9.64 -31.44,-21.51 0,-11.89 14.08,-21.52 31.44,-21.52 17.37,0 31.45,9.63 31.45,21.52" /><path
         id="path186"
         style="fill:#f36150;fill-opacity:1;fill-rule:nonzero;stroke:none"
         d="m 3707.55,2349.77 c -50.65,3.89 -88.42,51.59 -84.21,106.33 4.21,54.74 48.84,96.1 99.48,92.21 50.65,-3.9 88.43,-51.6 84.21,-106.34 -4.21,-54.74 -48.84,-96.1 -99.48,-92.2" /><path
         id="path188"
         style="fill:none;stroke:#f36150;stroke-width:11.77400017;stroke-linecap:round;stroke-linejoin:miter;stroke-miterlimit:10;stroke-dasharray:none;stroke-opacity:1"
         d="m 3526.37,2246.54 c 0,0 133.78,9.99 178.18,132.87" /><path
         id="path190"
         style="fill:#f36150;fill-opacity:1;fill-rule:nonzero;stroke:none"
         d="m 3475.59,2225.97 c -9.42,0.72 -16.99,8.42 -17.34,18.07 -0.38,10.39 7.74,19.12 18.12,19.51 l 49.3,1.8 c 10.37,0.44 19.12,-7.73 19.51,-18.12 0.38,-10.39 -7.75,-19.12 -18.12,-19.51 l -49.31,-1.79 c -0.73,-0.03 -1.45,-0.01 -2.16,0.04" /><path
         id="path192"
         style="fill:#13283d;fill-opacity:1;fill-rule:nonzero;stroke:none"
         d="m 3782.01,2443.9 c 3.16,41 -24.21,76.54 -61.11,79.39 -36.91,2.83 -69.39,-28.11 -72.54,-69.12 -3.15,-41.01 24.21,-76.54 61.11,-79.38 36.91,-2.85 69.39,28.09 72.54,69.11" /><path
         id="path194"
         style="fill:none;stroke:#f36150;stroke-width:11.77400017;stroke-linecap:round;stroke-linejoin:miter;stroke-miterlimit:10;stroke-dasharray:none;stroke-opacity:1"
         d="m 3723.35,2545.45 c 8.48,101.23 9.34,198.38 -86.47,235.97" /><g
         transform="scale(10)"
         id="g196"><text
           id="text200"
           style="font-variant:normal;font-weight:bold;font-size:16.88279915px;font-family:Quicksand;-inkscape-font-specification:Quicksand-Bold;writing-mode:lr-tb;fill:#13283d;fill-opacity:1;fill-rule:nonzero;stroke:none"
           transform="matrix(1,0,0,-1,210.022,256.118)"><tspan
             id="tspan198"
             y="0"
             x="0 9.3359489 18.942892 25.696012 30.760851 46.816395 57.098019 62.162861 70.4692 80.750824 90.863136">Let me see,</tspan></text>
</g><path
         id="path202"
         style="fill:none;stroke:#13283d;stroke-width:10;stroke-linecap:round;stroke-linejoin:round;stroke-miterlimit:10;stroke-dasharray:none;stroke-opacity:1"
         d="m 2120.22,2156.61 h 482.72" /><path
         id="path204"
         style="fill:none;stroke:#13283d;stroke-width:10;stroke-linecap:round;stroke-linejoin:round;stroke-miterlimit:10;stroke-dasharray:none;stroke-opacity:1"
         d="m 2120.22,2449.36 h 896.65" /><path
         id="path206"
         style="fill:none;stroke:#13283d;stroke-width:10;stroke-linecap:round;stroke-linejoin:round;stroke-miterlimit:10;stroke-dasharray:none;stroke-opacity:1"
         d="m 2120.22,2351.78 h 896.65" /><path
         id="path208"
         style="fill:none;stroke:#13283d;stroke-width:10;stroke-linecap:round;stroke-linejoin:round;stroke-miterlimit:10;stroke-dasharray:none;stroke-opacity:1"
         d="m 2120.22,2254.19 h 896.65" /><path
         id="path210"
         style="fill:#101c24;fill-opacity:1;fill-rule:nonzero;stroke:none"
         d="m 2601.04,345.34 c -4.32,-4.418 -8.03,-9.301 -11.08,-14.531 l -4.66,2.41 c -0.66,2.98 -3.48,5.031 -6.58,4.672 -3.31,-0.391 -5.68,-3.391 -5.29,-6.7 0.39,-3.312 3.39,-5.679 6.7,-5.293 0.65,0.082 1.27,0.262 1.83,0.532 l 4.51,-2.348 c -2.51,-5.543 -4.32,-11.383 -5.39,-17.441 l 7.46,-1.309 c 2.31,13.059 8.5,25.059 17.92,34.719 l -5.42,5.289" /><path
         id="path212"
         style="fill:#101c24;fill-opacity:1;fill-rule:nonzero;stroke:none"
         d="m 2655.92,368.371 c -1.71,0 -3.41,-0.07 -5.1,-0.18 l -0.73,6.258 c 1.87,1.5 2.96,3.903 2.65,6.449 -0.46,3.934 -4.02,6.754 -7.96,6.293 -3.92,-0.472 -6.73,-4.031 -6.27,-7.961 0.3,-2.539 1.89,-4.609 4.05,-5.64 l 0.73,-6.238 c -7.14,-1.161 -14.03,-3.321 -20.59,-6.461 l 3.27,-6.84 c 9.33,4.48 19.41,6.73 29.95,6.73 4.96,0 9.93,-0.531 14.74,-1.57 l 1.62,7.41 c -5.36,1.149 -10.85,1.75 -16.36,1.75" /><path
         id="path214"
         style="fill:#101c24;fill-opacity:1;fill-rule:nonzero;stroke:none"
         d="m 2721.94,342.891 c 3.31,0.41 5.67,3.418 5.26,6.73 -0.4,3.309 -3.42,5.649 -6.72,5.25 -3.1,-0.379 -5.35,-3.031 -5.3,-6.082 l -4.16,-3.629 c -4.18,4.289 -8.9,8.121 -14.09,11.379 l -4.03,-6.398 c 11.34,-7.149 20.21,-17.27 25.63,-29.262 l 6.91,3.121 c -2.51,5.551 -5.67,10.73 -9.42,15.449 l 4.02,3.52 c 0.6,-0.129 1.25,-0.16 1.9,-0.078" /><path
         id="path216"
         style="fill:#101c24;fill-opacity:1;fill-rule:nonzero;stroke:none"
         d="m 2650.44,266.281 c -3.86,-0.242 -7.74,-0.34 -11.57,-0.34 -8.8,0 -17.33,0.598 -24.78,1.778 -3.9,0.633 -8.47,1.562 -12.7,2.922 10.46,-18.602 30.69,-31.25 53.88,-31.25 28.56,0 52.62,19.16 59.5,45.039 -6.82,-4.489 -15.06,-8.25 -24.59,-11.231 -11.79,-3.668 -25.54,-6.058 -39.74,-6.918" /><path
         id="path218"
         style="fill:#101c24;fill-opacity:1;fill-rule:nonzero;stroke:none"
         d="m 2681.7,297.141 c -7.5,0 -13.6,6.101 -13.6,13.601 0,7.5 6.1,13.61 13.6,13.61 7.5,0 13.6,-6.11 13.6,-13.61 0,-7.5 -6.1,-13.601 -13.6,-13.601 z m -47.37,-9.082 c -10.21,0 -18.5,8.3 -18.5,18.492 0,10.211 8.29,18.5 18.5,18.5 10.19,0 18.49,-8.289 18.49,-18.5 0,-10.192 -8.3,-18.492 -18.49,-18.492 z m 21.59,65.14 c -33.53,0 -60.79,-26.66 -60.79,-59.429 0,-4.258 0.46,-8.489 1.36,-12.622 6.74,-4.816 27.06,-8.886 53.48,-7.296 28.79,1.73 52.97,9.57 66.72,21.578 -0.05,1.949 -0.21,3.91 -0.45,5.82 -3.8,29.621 -29.74,51.949 -60.32,51.949" /><path
         id="path220"
         style="fill:#101c24;fill-opacity:1;fill-rule:nonzero;stroke:none"
         d="m 2815.96,334.531 c -2.95,1.16 -8.06,3.09 -13.83,2.367 -5.51,-0.679 -8.44,-3.386 -8.44,-10.058 v -8.66 h 22.28 v -17.168 h -22.28 v -54.551 h -19.32 v 54.551 h -13.39 v 17.168 h 13.39 v 8.879 c 0,16.812 8.96,27.832 25.69,27.832 6.42,0 11.57,-1.219 15.9,-3.082 v -17.278" /><path
         id="path222"
         style="fill:#101c24;fill-opacity:1;fill-rule:nonzero;stroke:none"
         d="m 2862.98,301.211 c -1.77,0.301 -3.58,0.469 -5.27,0.469 -8.95,0 -15.09,-5.481 -15.09,-16.141 v -39.078 h -19.32 v 71.719 h 18.73 v -7.848 c 4.51,6.738 11.4,9.777 20.21,9.777 4.14,0 8.47,-1.277 10.93,-3.367 l -10.19,-15.531" /><path
         id="path224"
         style="fill:#101c24;fill-opacity:1;fill-rule:nonzero;stroke:none"
         d="m 2888.51,289.09 h 31.75 c -1.77,9.18 -7.33,14.359 -15.62,14.359 -9.1,0 -14.43,-5.469 -16.13,-14.359 z m 51.14,-6.66 c 0,-2.219 -0.15,-4.879 -0.37,-6.508 h -50.84 c 2.07,-10.363 9.32,-14.883 18.42,-14.883 6.22,0 12.95,2.512 18.14,6.883 l 11.32,-12.43 c -8.14,-7.472 -18.51,-10.883 -30.57,-10.883 -21.98,0 -37.22,14.95 -37.22,37.532 0,22.57 14.8,37.968 36.25,37.968 20.66,0 34.8,-15.32 34.87,-37.679" /><path
         id="path226"
         style="fill:#101c24;fill-opacity:1;fill-rule:nonzero;stroke:none"
         d="m 2965.04,289.09 h 31.76 c -1.78,9.18 -7.34,14.359 -15.63,14.359 -9.1,0 -14.43,-5.469 -16.13,-14.359 z m 51.14,-6.66 c 0,-2.219 -0.15,-4.879 -0.37,-6.508 h -50.84 c 2.07,-10.363 9.32,-14.883 18.43,-14.883 6.21,0 12.95,2.512 18.13,6.883 l 11.32,-12.43 c -8.14,-7.472 -18.5,-10.883 -30.57,-10.883 -21.98,0 -37.22,14.95 -37.22,37.532 0,22.57 14.8,37.968 36.26,37.968 20.65,0 34.79,-15.32 34.86,-37.679" /><path
         id="path228"
         style="fill:#101c24;fill-opacity:1;fill-rule:nonzero;stroke:none"
         d="m 3042.87,282.352 c 0,-11.313 7.48,-19.75 18.43,-19.75 11.4,0 18.5,8.808 18.5,19.75 0,10.957 -7.1,19.769 -18.5,19.769 -10.95,0 -18.43,-8.441 -18.43,-19.769 z m 56.77,0 c 0,-21.532 -14.95,-37.743 -34.71,-37.743 -9.63,0 -16.43,3.782 -21.09,9.332 v -37.082 h -19.25 V 318.18 h 18.88 v -7.918 c 4.65,5.84 11.54,9.847 21.38,9.847 19.84,0 34.79,-16.207 34.79,-37.757" /><path
         id="path230"
         style="fill:#101c24;fill-opacity:1;fill-rule:nonzero;stroke:none"
         d="m 3128.09,246.461 h -19.32 v 71.719 h 19.32 z m 2.58,95.18 c 0,-6.95 -5.4,-12.282 -12.35,-12.282 -6.96,0 -12.29,5.332 -12.29,12.282 0,6.961 5.33,12.429 12.29,12.429 6.95,0 12.35,-5.468 12.35,-12.429" /><path
         id="path232"
         style="fill:#101c24;fill-opacity:1;fill-rule:nonzero;stroke:none"
         d="m 3160.32,292.652 27.01,25.528 h 23.7 l -34.8,-33.75 35.01,-37.969 h -23.76 l -27.16,29.019 v -29.019 h -19.31 v 106.578 h 19.31 v -60.387" /><path
         id="path234"
         style="fill:#101c24;fill-opacity:1;fill-rule:nonzero;stroke:none"
         d="m 1844.13,266.301 v 32.078 c -3.96,6.152 -12.46,11.422 -21.24,11.422 -14.21,0 -22.71,-11.711 -22.71,-27.391 0,-15.668 8.5,-27.238 22.71,-27.238 8.78,0 17.28,4.98 21.24,11.129 z m 0,-19.192 v 10.551 c -5.28,-7.18 -13.92,-12.308 -23.88,-12.308 -18.46,0 -31.5,14.058 -31.5,37.058 0,22.559 12.9,37.211 31.5,37.211 9.52,0 18.16,-4.691 23.88,-12.449 v 37.637 h 10.98 v -97.7 h -10.98" /><path
         id="path236"
         style="fill:#101c24;fill-opacity:1;fill-rule:nonzero;stroke:none"
         d="m 1904.03,310.539 c -15.08,0 -22.56,-12.75 -23.14,-23.59 h 46.43 c -0.14,10.551 -7.17,23.59 -23.29,23.59 z m -34.71,-27.98 c 0,20.511 14.64,37.062 34.86,37.062 21.39,0 33.98,-16.699 33.98,-37.941 v -2.778 h -57.27 c 0.88,-13.332 10.25,-24.472 25.49,-24.472 8.05,0 16.26,3.23 21.82,8.941 l 5.28,-7.18 c -7.03,-7.031 -16.56,-10.839 -28.13,-10.839 -20.95,0 -36.03,15.089 -36.03,37.207" /><path
         id="path238"
         style="fill:#101c24;fill-opacity:1;fill-rule:nonzero;stroke:none"
         d="m 1946.07,256.48 5.71,7.911 c 4.69,-5.422 13.63,-10.102 23.29,-10.102 10.84,0 16.7,5.121 16.7,12.16 0,17.133 -43.8,6.59 -43.8,32.813 0,10.976 9.52,20.359 26.37,20.359 12.01,0 20.51,-4.539 26.22,-10.25 l -5.13,-7.621 c -4.24,5.121 -12.01,8.93 -21.09,8.93 -9.67,0 -15.67,-4.828 -15.67,-11.129 0,-15.531 43.79,-5.27 43.79,-32.809 0,-11.871 -9.52,-21.39 -27.83,-21.39 -11.57,0 -21.38,3.519 -28.56,11.128" /><path
         id="path240"
         style="fill:#101c24;fill-opacity:1;fill-rule:nonzero;stroke:none"
         d="m 2016.67,247.109 v 70.75 h 10.99 v -70.75 z m -1.9,88.18 c 0,4.102 3.37,7.473 7.32,7.473 4.11,0 7.47,-3.371 7.47,-7.473 0,-4.098 -3.36,-7.32 -7.47,-7.32 -3.95,0 -7.32,3.222 -7.32,7.32" /><path
         id="path242"
         style="fill:#101c24;fill-opacity:1;fill-rule:nonzero;stroke:none"
         d="m 2097.08,267.469 v 30.91 c -3.8,6.152 -12.3,11.422 -21.08,11.422 -14.22,0 -22.71,-11.27 -22.71,-26.949 0,-15.532 8.49,-26.954 22.71,-26.954 8.78,0 17.28,5.422 21.08,11.571 z m -51.26,-38.52 5.57,8.199 c 5.86,-7.027 12.89,-9.668 22.99,-9.668 11.72,0 22.7,5.711 22.7,21.239 v 10.113 c -5.12,-7.184 -13.76,-12.602 -23.73,-12.602 -18.45,0 -31.48,13.77 -31.48,36.622 0,22.707 12.88,36.769 31.48,36.769 9.53,0 18.03,-4.691 23.73,-12.449 v 10.687 h 10.99 V 249.16 c 0,-23.441 -16.41,-30.762 -33.69,-30.762 -12.01,0 -20.21,2.344 -28.56,10.551" /><path
         id="path244"
         style="fill:#101c24;fill-opacity:1;fill-rule:nonzero;stroke:none"
         d="m 2174.13,247.109 v 46.289 c 0,12.454 -6.29,16.403 -15.81,16.403 -8.65,0 -16.86,-5.27 -20.95,-10.981 v -51.711 h -10.99 v 70.75 h 10.99 v -10.25 c 4.98,5.86 14.64,12.012 25.19,12.012 14.79,0 22.56,-7.473 22.56,-22.851 v -49.661 h -10.99" /><path
         id="path246"
         style="fill:#101c24;fill-opacity:1;fill-rule:nonzero;stroke:none"
         d="m 2234.04,310.539 c -15.09,0 -22.56,-12.75 -23.14,-23.59 h 46.43 c -0.15,10.551 -7.18,23.59 -23.29,23.59 z m -34.71,-27.98 c 0,20.511 14.64,37.062 34.86,37.062 21.38,0 33.98,-16.699 33.98,-37.941 v -2.778 h -57.27 c 0.88,-13.332 10.25,-24.472 25.49,-24.472 8.05,0 16.25,3.23 21.82,8.941 l 5.28,-7.18 c -7.04,-7.031 -16.56,-10.839 -28.13,-10.839 -20.95,0 -36.03,15.089 -36.03,37.207" /><path
         id="path248"
         style="fill:#101c24;fill-opacity:1;fill-rule:nonzero;stroke:none"
         d="m 2333.5,266.301 v 32.078 c -3.96,6.152 -12.45,11.422 -21.24,11.422 -14.21,0 -22.7,-11.711 -22.7,-27.391 0,-15.668 8.49,-27.238 22.7,-27.238 8.79,0 17.28,4.98 21.24,11.129 z m 0,-19.192 v 10.551 c -5.27,-7.18 -13.92,-12.308 -23.88,-12.308 -18.45,0 -31.49,14.058 -31.49,37.058 0,22.559 12.89,37.211 31.49,37.211 9.52,0 18.17,-4.691 23.88,-12.449 v 37.637 h 10.99 v -97.7 h -10.99" /><path
         id="path250"
         style="fill:#101c24;fill-opacity:1;fill-rule:nonzero;stroke:none"
         d="m 2429,255.172 c 14.35,0 22.85,11.57 22.85,27.238 0,15.68 -8.5,27.391 -22.85,27.391 -8.64,0 -17.29,-5.27 -21.09,-11.422 v -32.078 c 3.8,-6.149 12.45,-11.129 21.09,-11.129 z m -32.08,-8.063 v 97.7 h 10.99 v -37.637 c 5.71,7.758 14.2,12.449 23.87,12.449 18.46,0 31.5,-14.652 31.5,-37.211 0,-23 -13.04,-37.058 -31.5,-37.058 -9.96,0 -18.6,5.128 -23.87,12.308 v -10.551 h -10.99" /><path
         id="path252"
         style="fill:#101c24;fill-opacity:1;fill-rule:nonzero;stroke:none"
         d="m 2475.28,229.379 c 1.61,-0.731 4.26,-1.168 6.01,-1.168 4.83,0 8.06,1.609 10.55,7.469 l 4.69,10.699 -29.6,71.48 h 11.87 l 23.58,-58.007 23.44,58.007 h 12.01 l -35.45,-85.109 c -4.25,-10.25 -11.42,-14.211 -20.8,-14.352 -2.34,0 -6,0.442 -8.05,1.024 l 1.75,9.957" /></g></g></svg>